<svg width="36" height="30" viewBox="0 0 36 30" fill="none" xmlns="http://www.w3.org/2000/svg">
<path d="M11.3085 30C24.894 30 32.3257 18.4552 32.3257 8.46115C32.3257 8.13809 32.3257 7.81041 32.3122 7.48735C33.7591 6.41315 35.0079 5.08322 36 3.55987C34.6485 4.17103 33.2162 4.57383 31.7498 4.75519C33.2944 3.80825 34.4514 2.31833 35.0055 0.562339C33.5542 1.44412 31.9658 2.06312 30.3097 2.39224C29.1964 1.17621 27.7232 0.370621 26.1182 0.100265C24.5132 -0.17009 22.8661 0.109874 21.432 0.896792C19.9979 1.68371 18.8568 2.93366 18.1855 4.45304C17.5142 5.97242 17.3502 7.67642 17.7188 9.3011C14.7819 9.15008 11.9088 8.36762 9.28585 7.00448C6.66286 5.64134 4.34854 3.72796 2.493 1.38845C1.55102 3.05701 1.26354 5.03072 1.68895 6.90877C2.11437 8.78682 3.22077 10.4284 4.7835 11.5002C3.61246 11.4594 2.46717 11.1369 1.44 10.5587V10.6626C1.44202 12.4105 2.03244 14.1041 3.11147 15.4571C4.19049 16.8102 5.69193 17.7396 7.362 18.0883C6.72809 18.2674 6.07327 18.3567 5.41575 18.3537C4.95221 18.3551 4.48961 18.3111 4.03425 18.2222C4.50627 19.7268 5.42536 21.0424 6.66281 21.9846C7.90025 22.9268 9.39405 23.4485 10.935 23.4765C8.31725 25.5852 5.08365 26.7288 1.755 26.7233C1.16847 26.7258 0.582352 26.6911 0 26.6194C3.37841 28.8284 7.30192 30.0013 11.3085 30Z" fill="white"/>
</svg>
